<svg width="1200" height="630" viewBox="0 0 1200 630" xmlns="http://www.w3.org/2000/svg">
  <defs>
    <linearGradient id="bg" x1="0" y1="0" x2="1" y2="1">
      <stop offset="0" stop-color="#12161d"/>
      <stop offset="1" stop-color="#0b0e13"/>
    </linearGradient>
    <radialGradient id="glow" cx="80%" cy="28%" r="46%">
      <stop offset="0" stop-color="#3b82f6" stop-opacity="0.22"/>
      <stop offset="1" stop-color="#3b82f6" stop-opacity="0"/>
    </radialGradient>
    <pattern id="grid" width="40" height="40" patternUnits="userSpaceOnUse">
      <path d="M40 0H0V40" fill="none" stroke="#ffffff" stroke-opacity="0.04"/>
    </pattern>
    <!-- AWS IAM glyph (transparent, no service tile). viewBox 80x80 -->
    <symbol id="iam" viewBox="0 0 80 80">
      <path d="M14 59 66 59 66 21 14 21 14 59ZM68 20 68 60C68 60.552 67.553 61 67 61L13 61C12.447 61 12 60.552 12 60L12 20C12 19.448 12.447 19 13 19L67 19C67.553 19 68 19.448 68 20L68 20ZM44 48 59 48 59 46 44 46 44 48ZM57 42 62 42 62 40 57 40 57 42ZM44 42 52 42 52 40 44 40 44 42ZM29 46C29 45.449 28.552 45 28 45 27.448 45 27 45.449 27 46 27 46.551 27.448 47 28 47 28.552 47 29 46.551 29 46L29 46ZM31 46C31 47.302 30.161 48.401 29 48.816L29 51 27 51 27 48.815C25.839 48.401 25 47.302 25 46 25 44.346 26.346 43 28 43 29.654 43 31 44.346 31 46L31 46ZM19 53.993 36.994 54 36.996 50 33 50 33 48 36.996 48 36.998 45 33 45 33 43 36.999 43 37 40.007 19.006 40 19 53.993ZM22 38.001 34 38.006 34 31C34.001 28.697 31.197 26.677 28 26.675L27.996 26.675C24.804 26.675 22.004 28.696 22.002 31L22 38.001ZM17 54.992 17.006 39C17.006 38.734 17.111 38.48 17.299 38.292 17.486 38.105 17.741 38 18.006 38L20 38.001 20.002 31C20.004 27.512 23.59 24.675 27.996 24.675L28 24.675C32.412 24.677 36.001 27.515 36 31L36 38.007 38 38.008C38.553 38.008 39 38.456 39 39.008L38.994 55C38.994 55.266 38.889 55.52 38.701 55.708 38.514 55.895 38.259 56 37.994 56L18 55.992C17.447 55.992 17 55.544 17 54.992L17 54.992ZM60 36 62 36 62 34 60 34 60 36ZM44 36 55 36 55 34 44 34 44 36Z"/>
    </symbol>
  </defs>

  <rect width="1200" height="630" fill="url(#bg)"/>
  <rect width="1200" height="630" fill="url(#grid)"/>
  <rect width="1200" height="630" fill="url(#glow)"/>

  <use href="#iam" x="820" y="150" width="300" height="300" fill="#3b82f6" opacity="0.08"/>

  <text x="64" y="150" font-family="'JetBrains Mono',monospace" font-size="30" letter-spacing="4" fill="#3b82f6">KUBERNETES</text>

  <text font-family="'Lexend','Inter',sans-serif" font-size="48" font-weight="700" fill="#ffffff">
    <tspan x="64" y="250">Securing AI Agents</tspan>
    <tspan x="64" y="312">on Amazon EKS</tspan>
  </text>

  <g transform="translate(64,398)">
    <path d="M7 0 H363 L370 7 V37 L363 44 H7 L0 37 V7 Z" fill="#3b82f6" fill-opacity="0.15"/>
    <text x="20" y="30" font-family="'JetBrains Mono',monospace" font-size="22" fill="#3b82f6">cognito · jwt · sandbox</text>
  </g>

  <text x="64" y="566" font-family="'JetBrains Mono',monospace" font-size="18" fill="#8b93a1">Toan Nguyen<tspan fill="#3b82f6">.</tspan>devops</text>

  <use href="#iam" x="1060" y="60" width="88" height="88" fill="#3b82f6"/>
</svg>
