<svg width="48" height="48" viewBox="0 0 48 48" xmlns="http://www.w3.org/2000/svg" xmlns:xlink="http://www.w3.org/1999/xlink" overflow="hidden"><g id="Icon-Resource/General-Resource/Res_Git-Repository_48" stroke="none" stroke-width="1" fill="none" fill-rule="evenodd"><path d="M36.002 44C34.348 44 33.002 42.654 33.002 41 33.002 39.346 34.348 38 36.002 38 37.656 38 39.002 39.346 39.002 41 39.002 42.654 37.656 44 36.002 44M12 10C10.346 10 9 8.654 9 7 9 5.346 10.346 4 12 4 13.654 4 15 5.346 15 7 15 8.654 13.654 10 12 10M36.002 21.001C37.656 21.001 39.002 22.347 39.002 24.001 39.002 25.655 37.656 27.001 36.002 27.001 34.348 27.001 33.002 25.655 33.002 24.001 33.002 22.347 34.348 21.001 36.002 21.001M36.002 36C33.587 36 31.567 37.721 31.103 40.001L26.001 40.001C25.338 40.001 25.001 39.685 25.001 39.062L25.001 25.001 31.103 25.001C31.568 27.28 33.588 29.001 36.002 29.001 38.759 29.001 41.002 26.758 41.002 24.001 41.002 21.244 38.759 19.001 36.002 19.001 33.588 19.001 31.568 20.722 31.103 23.001L25.001 23.001 25.001 8.938C25.001 7.208 23.768 5.999 22.001 5.999L16.899 5.999C16.434 3.72 14.414 2 12 2 9.243 2 7 4.243 7 7 7 9.757 9.243 12 12 12 14.415 12 16.435 10.279 16.899 7.999L22.001 7.999C22.674 7.999 23.001 8.306 23.001 8.938L23.001 39.062C23.001 40.792 24.234 42.001 26.001 42.001L31.103 42.001C31.568 44.28 33.588 46 36.002 46 38.759 46 41.002 43.757 41.002 41 41.002 38.243 38.759 36 36.002 36" id="Fill-1" fill="#FFFFFF"/></g></svg>