<svg width="1200" height="630" viewBox="0 0 1200 630" xmlns="http://www.w3.org/2000/svg">
  <defs>
    <linearGradient id="bg" x1="0" y1="0" x2="1" y2="1">
      <stop offset="0" stop-color="#12161d"/>
      <stop offset="1" stop-color="#0b0e13"/>
    </linearGradient>
    <radialGradient id="glow" cx="80%" cy="28%" r="46%">
      <stop offset="0" stop-color="#ff9900" stop-opacity="0.22"/>
      <stop offset="1" stop-color="#ff9900" stop-opacity="0"/>
    </radialGradient>
    <pattern id="grid" width="40" height="40" patternUnits="userSpaceOnUse">
      <path d="M40 0H0V40" fill="none" stroke="#ffffff" stroke-opacity="0.04"/>
    </pattern>
    <!-- AWS VPC NAT Gateway glyph (transparent). viewBox 48x48 -->
    <symbol id="natgw" viewBox="0 0 48 48">
      <path d="M13.6255 35.9209 13.6255 33.0829 15.3995 34.5019 13.6255 35.9209ZM13.2505 30.2209C12.9495 29.9799 12.5365 29.9329 12.1915 30.1009 11.8465 30.2679 11.6255 30.6169 11.6255 31.0019L11.6255 38.0019C11.6255 38.3869 11.8465 38.7359 12.1915 38.9029 12.3305 38.9699 12.4785 39.0019 12.6255 39.0019 12.8485 39.0019 13.0695 38.9279 13.2505 38.7829L17.6255 35.2829C17.8625 35.0929 18.0005 34.8059 18.0005 34.5019 18.0005 34.1979 17.8625 33.9109 17.6255 33.7209L13.2505 30.2209ZM37.2515 26.8369 37.2515 22.9149 39.2125 24.8759 37.2515 26.8369ZM41.3335 24.1689 36.9585 19.7939C36.6725 19.5079 36.2445 19.4219 35.8685 19.5769 35.4945 19.7319 35.2515 20.0969 35.2515 20.5009L35.2515 23.8759 27.6255 23.8759 27.6255 14.3759C27.6255 13.8229 27.1785 13.3759 26.6255 13.3759L18.9315 13.3759 18.9315 15.3759 25.6255 15.3759 25.6255 23.8759 18.7505 23.8759 18.7505 25.8759 25.6255 25.8759 25.6255 34.3769 18.9315 34.3769 18.9315 36.3769 26.6255 36.3769C27.1785 36.3769 27.6255 35.9299 27.6255 35.3769L27.6255 25.8759 35.2515 25.8759 35.2515 29.2519C35.2515 29.6559 35.4955 30.0219 35.8685 30.1759 35.9925 30.2279 36.1225 30.2519 36.2515 30.2519 36.5115 30.2519 36.7675 30.1499 36.9585 29.9589L41.3335 25.5829C41.7245 25.1919 41.7245 24.5599 41.3335 24.1689L41.3335 24.1689ZM13.6255 26.2959 13.6255 23.4569 15.3995 24.8759 13.6255 26.2959ZM13.2505 20.5949C12.9495 20.3539 12.5365 20.3079 12.1915 20.4749 11.8465 20.6419 11.6255 20.9909 11.6255 21.3759L11.6255 28.3769C11.6255 28.7619 11.8465 29.1109 12.1915 29.2779 12.3305 29.3449 12.4785 29.3769 12.6255 29.3769 12.8485 29.3769 13.0695 29.3029 13.2505 29.1579L17.6255 25.6569C17.8625 25.4669 18.0005 25.1799 18.0005 24.8759 18.0005 24.5719 17.8625 24.2849 17.6255 24.0949L13.2505 20.5949ZM13.6255 15.7949 13.6255 12.9569 15.3995 14.3759 13.6255 15.7949ZM13.2505 10.0949C12.9495 9.8539 12.5365 9.8069 12.1915 9.9749 11.8465 10.1419 11.6255 10.4909 11.6255 10.8759L11.6255 17.8759C11.6255 18.2609 11.8465 18.6099 12.1915 18.7769 12.3305 18.8439 12.4785 18.8759 12.6255 18.8759 12.8485 18.8759 13.0695 18.8019 13.2505 18.6569L17.6255 15.1569C17.8625 14.9669 18.0005 14.6799 18.0005 14.3759 18.0005 14.0719 17.8625 13.7849 17.6255 13.5949L13.2505 10.0949ZM24.0005 44.0029C12.9725 44.0029 3.9995 35.0299 3.9995 24.0009 3.9995 12.9729 12.9725 3.9999 24.0005 3.9999 35.0295 3.9999 44.0025 12.9729 44.0025 24.0009 44.0025 35.0299 35.0295 44.0029 24.0005 44.0029L24.0005 44.0029ZM24.0005 1.9999C11.8685 1.9999 1.9995 11.8689 1.9995 24.0009 1.9995 36.1329 11.8685 46.0029 24.0005 46.0029 36.1325 46.0029 46.0025 36.1329 46.0025 24.0009 46.0025 11.8689 36.1325 1.9999 24.0005 1.9999L24.0005 1.9999Z"/>
    </symbol>
  </defs>

  <rect width="1200" height="630" fill="url(#bg)"/>
  <rect width="1200" height="630" fill="url(#grid)"/>
  <rect width="1200" height="630" fill="url(#glow)"/>

  <use href="#natgw" x="820" y="150" width="300" height="300" fill="#ff9900" opacity="0.08"/>

  <text x="64" y="150" font-family="'JetBrains Mono',monospace" font-size="30" letter-spacing="4" fill="#ff9900">AWS</text>

  <text font-family="'Lexend','Inter',sans-serif" font-size="46" font-weight="700" fill="#ffffff">
    <tspan x="64" y="246">Tự làm NAT Gateway trên</tspan>
    <tspan x="64" y="302">AWS Local Zone bằng Squid + EIP</tspan>
  </text>

  <g transform="translate(64,390)">
    <path d="M7 0 H373 L380 7 V37 L373 44 H7 L0 37 V7 Z" fill="#ff9900" fill-opacity="0.15"/>
    <text x="20" y="30" font-family="'JetBrains Mono',monospace" font-size="22" fill="#ff9900">squid · eip · networking</text>
  </g>

  <text x="64" y="566" font-family="'JetBrains Mono',monospace" font-size="18" fill="#8b93a1">Toan Nguyen<tspan fill="#ff9900">.</tspan>devops</text>

  <use href="#natgw" x="1060" y="60" width="88" height="88" fill="#ff9900"/>
</svg>
